<svg width="1024" height="1024" viewBox="0 0 1024 1024" fill="none" xmlns="http://www.w3.org/2000/svg">
<g clip-path="url(#clip0_354_40)">
<path fill-rule="evenodd" clip-rule="evenodd" d="M138.169 127.439C138.155 127.586 138.189 127.782 138.24 128.072C138.331 128.595 138.476 129.426 138.49 130.839" fill="black"/>
<path fill-rule="evenodd" clip-rule="evenodd" d="M201.526 127.651C201.516 127.731 201.542 127.878 201.582 128.109C201.671 128.619 201.832 129.539 201.847 131.051" fill="black"/>
<path d="M85 204.906H135.5L135.942 201.569C134.219 199.829 133.243 197.4 133.432 194.72C133.62 194.721 133.878 193.63 134.191 191.606C135.523 182.99 137.057 168.674 137.673 159.909C138.166 152.912 138.579 139.725 138.49 130.839C138.476 129.426 138.331 128.595 138.24 128.072C138.189 127.782 138.155 127.586 138.169 127.439C138.599 122.839 142.349 119.062 146.961 118.319L147 118.027H95.5L85 204.906Z" fill="black"/>
<path d="M214 118.027H162.5L161.129 129.372C168.39 137.699 180.34 150.665 184.235 154.726C187.179 157.796 192.038 162.677 196.98 167.514C198.03 168.541 199.084 169.567 200.124 170.573C200.503 166.741 200.82 163.109 201.03 160.121C201.523 153.124 201.935 139.937 201.847 131.051C201.832 129.539 201.671 128.619 201.582 128.109C201.542 127.878 201.516 127.731 201.526 127.651C202.008 122.493 206.663 118.37 212.03 118.399C212.691 118.403 213.332 118.469 213.948 118.592L214 118.027Z" fill="black"/>
<path fill-rule="evenodd" clip-rule="evenodd" d="M58.8772 115.176C60.8859 86.3544 84.8524 64 113.744 64H964.466C996.385 64 1021.6 91.0809 1019.33 122.919L1009.82 256H49.063L58.8772 115.176ZM45.7178 304L35.6822 448L13.5202 766L4.09953 901.176C1.88305 932.98 27.0853 960 58.9664 960H908.324C937.179 960 961.128 937.7 963.184 908.919L1006.39 304H45.7178ZM791.455 448H308H277.741C262.117 448 249.109 459.991 247.84 475.562L226.644 735.562C225.53 749.23 233.729 761.364 245.744 766C249.088 767.29 252.728 768 256.545 768H770.259C785.883 768 798.891 756.009 800.16 740.438L821.356 480.438C822.78 462.966 808.985 448 791.455 448ZM135.5 204.906L135.942 201.569C137.598 203.243 139.946 204.281 142.613 204.295C142.752 204.296 142.891 204.294 143.028 204.289L143 204.906H152L158.402 151.937C164.175 157.643 169.697 163.216 172.06 165.681C178.011 171.887 191 186.198 196.372 192.858L196.441 192.943C196.634 193.184 196.812 193.408 196.974 193.617C196.883 194.047 196.82 194.485 196.789 194.932C196.462 199.574 199.627 203.459 204.116 204.326C204.713 204.442 205.332 204.504 205.97 204.507L206.037 204.507C211.45 204.502 216.124 200.276 216.492 195.039C216.304 195.038 216.199 193.945 216.171 191.919C216.053 183.295 216.534 168.973 217.151 160.209C217.643 153.212 219.086 140.03 220.424 131.152C220.655 129.624 220.946 128.702 221.106 128.197C221.176 127.977 221.22 127.836 221.224 127.758C221.438 123.234 218.333 119.471 213.948 118.592L214 118.027H162.5L161.129 129.372C159.809 127.858 158.643 126.497 157.71 125.371C157.533 124.473 157.221 123.626 156.793 122.849C155.264 120.074 152.257 118.207 148.673 118.187C148.165 118.184 147.664 118.219 147.172 118.288C147.11 118.296 147.048 118.306 146.987 118.315L146.961 118.319L147 118.027H95.5L85 204.906H135.5Z" fill="black"/>
</g>
<defs>
<clipPath id="clip0_354_40">
<rect width="1024" height="1024" fill="white"/>
</clipPath>
</defs>
</svg>
