<svg width="1024" height="1024" viewBox="0 0 1024 1024" fill="none" xmlns="http://www.w3.org/2000/svg">
<g clip-path="url(#clip0_348_38)">
<path d="M58.8772 115.176C60.8859 86.3544 84.8524 64 113.744 64H964.466C996.385 64 1021.6 91.0809 1019.33 122.919L963.184 908.919C961.128 937.7 937.179 960 908.324 960H58.9664C27.0853 960 1.88305 932.98 4.09953 901.176L58.8772 115.176Z" fill="url(#paint0_linear_348_38)"/>
<path d="M58.8772 115.176C60.8859 86.3544 84.8524 64 113.744 64H964.466C996.385 64 1021.6 91.0809 1019.33 122.919L963.184 908.919C961.128 937.7 937.179 960 908.324 960H58.9664C27.0853 960 1.88305 932.98 4.09953 901.176L58.8772 115.176Z" fill="url(#paint1_linear_348_38)" fill-opacity="0.45"/>
<path d="M58.8772 115.176C60.8859 86.3544 84.8524 64 113.744 64H964.466C996.385 64 1021.6 91.0809 1019.33 122.919L963.184 908.919C961.128 937.7 937.179 960 908.324 960H58.9664C27.0853 960 1.88305 932.98 4.09953 901.176L58.8772 115.176Z" fill="url(#paint2_linear_348_38)" fill-opacity="0.3"/>
<path d="M50 256H1011L1020.17 120.58C1022.24 89.9701 997.97 64 967.29 64H112.9C84.4095 64 60.8204 86.1343 59.0092 114.567L50 256Z" fill="url(#paint3_linear_348_38)" fill-opacity="0.7"/>
<path d="M14.9333 448H308V766H-6L14.9333 448Z" fill="url(#paint4_linear_348_38)" fill-opacity="0.7"/>
<g filter="url(#filter0_d_348_38)">
<g filter="url(#filter1_d_348_38)">
<path d="M247.84 475.562C249.109 459.991 262.117 448 277.741 448H791.455C808.985 448 822.78 462.966 821.356 480.438L800.16 740.438C798.891 756.009 785.883 768 770.259 768H256.545C239.015 768 225.22 753.034 226.644 735.562L247.84 475.562Z" fill="url(#paint5_linear_348_38)"/>
<path d="M247.84 475.562C249.109 459.991 262.117 448 277.741 448H791.455C808.985 448 822.78 462.966 821.356 480.438L800.16 740.438C798.891 756.009 785.883 768 770.259 768H256.545C239.015 768 225.22 753.034 226.644 735.562L247.84 475.562Z" fill="white" fill-opacity="0.35" style="mix-blend-mode:overlay"/>
</g>
</g>
<g opacity="0.9">
<path d="M147 118.027L204.5 204.906H135.5L147 118.027Z" fill="url(#paint6_linear_348_38)" fill-opacity="0.7"/>
<path d="M214 118.027L206 204.906H152L162.5 118.027H214Z" fill="url(#paint7_linear_348_38)" fill-opacity="0.7"/>
<path d="M147 118.027L143 204.906H85L95.5 118.027H147Z" fill="url(#paint8_linear_348_38)" fill-opacity="0.7"/>
</g>
<path fill-rule="evenodd" clip-rule="evenodd" d="M138.169 127.439C138.13 127.853 138.468 128.643 138.49 130.839L138.169 127.439Z" fill="url(#paint9_linear_348_38)"/>
<path fill-rule="evenodd" clip-rule="evenodd" d="M138.169 127.439C138.13 127.853 138.468 128.643 138.49 130.839L138.169 127.439Z" fill="white" fill-opacity="0.9" style="mix-blend-mode:overlay"/>
<path fill-rule="evenodd" clip-rule="evenodd" d="M201.526 127.651C201.496 127.907 201.825 128.855 201.847 131.051L201.526 127.651Z" fill="url(#paint10_linear_348_38)"/>
<path fill-rule="evenodd" clip-rule="evenodd" d="M201.526 127.651C201.496 127.907 201.825 128.855 201.847 131.051L201.526 127.651Z" fill="white" fill-opacity="0.9" style="mix-blend-mode:overlay"/>
<path d="M142.614 204.295C148.055 204.325 152.765 200.086 153.135 194.827C152.947 194.826 152.843 193.733 152.815 191.707C152.696 183.083 153.178 168.762 153.794 159.997C154.005 157.007 154.389 152.886 154.864 148.455C155.869 149.44 156.885 150.439 157.896 151.437C163.85 157.315 169.628 163.144 172.06 165.681C178.011 171.887 191 186.198 196.372 192.858L196.441 192.943C196.634 193.184 196.812 193.408 196.975 193.617C196.883 194.047 196.82 194.485 196.789 194.932C196.419 200.19 200.53 204.477 205.971 204.507C211.412 204.537 216.122 200.298 216.492 195.039C216.304 195.038 216.2 193.945 216.172 191.919C216.053 183.295 216.535 168.973 217.151 160.209C217.644 153.212 219.086 140.03 220.425 131.152C220.755 128.958 221.212 128.014 221.224 127.758C221.468 122.599 217.396 118.428 212.03 118.399C206.664 118.37 202.008 122.493 201.526 127.651C201.496 127.907 201.825 128.855 201.847 131.051C201.936 139.937 201.523 153.124 201.03 160.121C200.82 163.109 200.503 166.741 200.124 170.573C199.084 169.567 198.031 168.541 196.98 167.514C192.039 162.677 187.179 157.796 184.235 154.726C179.633 149.926 163.779 132.69 157.71 125.371C157.533 124.473 157.221 123.626 156.793 122.849C155.264 120.074 152.257 118.207 148.673 118.187C143.307 118.158 138.651 122.281 138.169 127.439C138.13 127.853 138.468 128.643 138.49 130.839C138.579 139.725 138.166 152.912 137.673 159.909C137.057 168.674 135.523 182.99 134.191 191.606C133.878 193.63 133.62 194.721 133.432 194.72C133.062 199.978 137.173 204.266 142.614 204.295Z" fill="url(#paint11_linear_348_38)"/>
<path d="M142.614 204.295C148.055 204.325 152.765 200.086 153.135 194.827C152.947 194.826 152.843 193.733 152.815 191.707C152.696 183.083 153.178 168.762 153.794 159.997C154.005 157.007 154.389 152.886 154.864 148.455C155.869 149.44 156.885 150.439 157.896 151.437C163.85 157.315 169.628 163.144 172.06 165.681C178.011 171.887 191 186.198 196.372 192.858L196.441 192.943C196.634 193.184 196.812 193.408 196.975 193.617C196.883 194.047 196.82 194.485 196.789 194.932C196.419 200.19 200.53 204.477 205.971 204.507C211.412 204.537 216.122 200.298 216.492 195.039C216.304 195.038 216.2 193.945 216.172 191.919C216.053 183.295 216.535 168.973 217.151 160.209C217.644 153.212 219.086 140.03 220.425 131.152C220.755 128.958 221.212 128.014 221.224 127.758C221.468 122.599 217.396 118.428 212.03 118.399C206.664 118.37 202.008 122.493 201.526 127.651C201.496 127.907 201.825 128.855 201.847 131.051C201.936 139.937 201.523 153.124 201.03 160.121C200.82 163.109 200.503 166.741 200.124 170.573C199.084 169.567 198.031 168.541 196.98 167.514C192.039 162.677 187.179 157.796 184.235 154.726C179.633 149.926 163.779 132.69 157.71 125.371C157.533 124.473 157.221 123.626 156.793 122.849C155.264 120.074 152.257 118.207 148.673 118.187C143.307 118.158 138.651 122.281 138.169 127.439C138.13 127.853 138.468 128.643 138.49 130.839C138.579 139.725 138.166 152.912 137.673 159.909C137.057 168.674 135.523 182.99 134.191 191.606C133.878 193.63 133.62 194.721 133.432 194.72C133.062 199.978 137.173 204.266 142.614 204.295Z" fill="white" fill-opacity="0.9" style="mix-blend-mode:overlay"/>
<path d="M138.166 127.439L138.169 127.439M138.169 127.439C138.13 127.853 138.468 128.643 138.49 130.839C138.579 139.725 138.166 152.912 137.673 159.909C137.057 168.674 135.523 182.99 134.191 191.606C133.878 193.63 133.62 194.721 133.432 194.72C133.062 199.978 137.173 204.266 142.614 204.295C148.055 204.325 152.765 200.086 153.135 194.827C152.947 194.826 152.843 193.733 152.815 191.707C152.696 183.083 153.178 168.762 153.794 159.997C154.005 157.007 154.389 152.886 154.864 148.455C155.869 149.44 156.885 150.439 157.896 151.437C163.85 157.315 169.628 163.144 172.06 165.681C178.011 171.887 191 186.198 196.372 192.858M138.169 127.439C138.651 122.281 143.307 118.158 148.673 118.187C152.257 118.207 155.264 120.074 156.793 122.849C157.221 123.626 157.533 124.473 157.71 125.371C163.779 132.69 179.633 149.926 184.235 154.726C187.179 157.796 192.039 162.677 196.98 167.514C198.031 168.541 199.084 169.567 200.124 170.573C200.503 166.741 200.82 163.109 201.03 160.121C201.523 153.124 201.936 139.937 201.847 131.051C201.825 128.855 201.496 127.907 201.526 127.651M201.523 127.651L201.526 127.651M221.227 127.758L221.224 127.758M201.526 127.651C202.008 122.493 206.664 118.37 212.03 118.399C217.396 118.428 221.468 122.599 221.224 127.758M221.224 127.758C221.212 128.014 220.755 128.958 220.425 131.152C219.086 140.03 217.644 153.212 217.151 160.209C216.535 168.973 216.053 183.295 216.172 191.919C216.2 193.945 216.304 195.038 216.492 195.039C216.122 200.298 211.412 204.537 205.971 204.507C200.53 204.477 196.419 200.19 196.789 194.932C196.82 194.485 196.883 194.047 196.975 193.617C196.812 193.408 196.634 193.184 196.441 192.943M196.441 192.943C196.418 192.915 196.395 192.887 196.372 192.858M196.441 192.943L196.372 192.858" stroke="url(#paint12_linear_348_38)"/>
<path d="M138.166 127.439L138.169 127.439M138.169 127.439C138.13 127.853 138.468 128.643 138.49 130.839C138.579 139.725 138.166 152.912 137.673 159.909C137.057 168.674 135.523 182.99 134.191 191.606C133.878 193.63 133.62 194.721 133.432 194.72C133.062 199.978 137.173 204.266 142.614 204.295C148.055 204.325 152.765 200.086 153.135 194.827C152.947 194.826 152.843 193.733 152.815 191.707C152.696 183.083 153.178 168.762 153.794 159.997C154.005 157.007 154.389 152.886 154.864 148.455C155.869 149.44 156.885 150.439 157.896 151.437C163.85 157.315 169.628 163.144 172.06 165.681C178.011 171.887 191 186.198 196.372 192.858M138.169 127.439C138.651 122.281 143.307 118.158 148.673 118.187C152.257 118.207 155.264 120.074 156.793 122.849C157.221 123.626 157.533 124.473 157.71 125.371C163.779 132.69 179.633 149.926 184.235 154.726C187.179 157.796 192.039 162.677 196.98 167.514C198.031 168.541 199.084 169.567 200.124 170.573C200.503 166.741 200.82 163.109 201.03 160.121C201.523 153.124 201.936 139.937 201.847 131.051C201.825 128.855 201.496 127.907 201.526 127.651M201.523 127.651L201.526 127.651M221.227 127.758L221.224 127.758M201.526 127.651C202.008 122.493 206.664 118.37 212.03 118.399C217.396 118.428 221.468 122.599 221.224 127.758M221.224 127.758C221.212 128.014 220.755 128.958 220.425 131.152C219.086 140.03 217.644 153.212 217.151 160.209C216.535 168.973 216.053 183.295 216.172 191.919C216.2 193.945 216.304 195.038 216.492 195.039C216.122 200.298 211.412 204.537 205.971 204.507C200.53 204.477 196.419 200.19 196.789 194.932C196.82 194.485 196.883 194.047 196.975 193.617C196.812 193.408 196.634 193.184 196.441 192.943M196.441 192.943C196.418 192.915 196.395 192.887 196.372 192.858M196.441 192.943L196.372 192.858" stroke="white" stroke-opacity="0.9" style="mix-blend-mode:overlay"/>
<rect x="448" y="704.283" width="576" height="255.717" rx="45" fill="#FFC225"/>
<path d="M578.701 893V771.395H615.496C624.626 771.395 632.656 772.605 639.586 775.025C646.516 777.335 651.961 781.185 655.921 786.575C659.991 791.855 662.026 799.115 662.026 808.355C662.026 817.155 660.046 824.415 656.086 830.135C652.126 835.745 646.681 839.98 639.751 842.84C632.931 845.59 625.066 846.965 616.156 846.965H597.841V893H578.701ZM597.841 831.455H614.506C624.076 831.455 631.226 829.585 635.956 825.845C640.686 822.105 643.051 816.275 643.051 808.355C643.051 800.215 640.576 794.605 635.626 791.525C630.676 788.445 623.361 786.905 613.681 786.905H597.841V831.455ZM698.893 893V771.395H738.658C747.018 771.395 754.498 772.55 761.098 774.86C767.698 777.06 772.923 780.745 776.773 785.915C780.623 790.975 782.548 797.905 782.548 806.705C782.548 815.175 780.623 822.16 776.773 827.66C772.923 833.16 767.698 837.285 761.098 840.035C754.498 842.675 747.018 843.995 738.658 843.995H718.033V893H698.893ZM718.033 828.65H736.348C745.148 828.65 751.858 826.835 756.478 823.205C761.208 819.465 763.573 813.965 763.573 806.705C763.573 799.335 761.208 794.22 756.478 791.36C751.858 788.39 745.148 786.905 736.348 786.905H718.033V828.65ZM765.223 893L735.028 838.88L749.218 827.825L786.838 893H765.223ZM820.374 893V771.395H892.149V787.565H839.514V821.39H884.064V837.56H839.514V876.665H893.964V893H820.374Z" fill="black"/>
<path d="M578.701 893H575.701V896H578.701V893ZM578.701 771.395V768.395H575.701V771.395H578.701ZM639.586 775.025L638.596 777.857L638.617 777.864L638.637 777.871L639.586 775.025ZM655.921 786.575L653.503 788.351L653.523 788.379L653.544 788.407L655.921 786.575ZM656.086 830.135L658.536 831.865L658.544 831.854L658.552 831.843L656.086 830.135ZM639.751 842.84L640.872 845.622L640.884 845.618L640.895 845.613L639.751 842.84ZM597.841 846.965V843.965H594.841V846.965H597.841ZM597.841 893V896H600.841V893H597.841ZM597.841 831.455H594.841V834.455H597.841V831.455ZM635.956 825.845L637.816 828.198L635.956 825.845ZM635.626 791.525L637.21 788.978L635.626 791.525ZM597.841 786.905V783.905H594.841V786.905H597.841ZM581.701 893V771.395H575.701V893H581.701ZM578.701 774.395H615.496V768.395H578.701V774.395ZM615.496 774.395C624.368 774.395 632.051 775.572 638.596 777.857L640.575 772.193C633.26 769.638 624.883 768.395 615.496 768.395V774.395ZM638.637 777.871C645.035 780.004 649.944 783.507 653.503 788.351L658.338 784.799C653.977 778.863 647.996 774.666 640.534 772.179L638.637 777.871ZM653.544 788.407C657.079 792.992 659.026 799.526 659.026 808.355H665.026C665.026 798.704 662.902 790.718 658.297 784.743L653.544 788.407ZM659.026 808.355C659.026 816.707 657.15 823.328 653.619 828.427L658.552 831.843C662.941 825.502 665.026 817.603 665.026 808.355H659.026ZM653.635 828.405C650.032 833.508 645.061 837.403 638.606 840.067L640.895 845.613C648.3 842.557 654.219 837.982 658.536 831.865L653.635 828.405ZM638.629 840.058C632.232 842.637 624.76 843.965 616.156 843.965V849.965C625.371 849.965 633.629 848.543 640.872 845.622L638.629 840.058ZM616.156 843.965H597.841V849.965H616.156V843.965ZM594.841 846.965V893H600.841V846.965H594.841ZM597.841 890H578.701V896H597.841V890ZM597.841 834.455H614.506V828.455H597.841V834.455ZM614.506 834.455C624.38 834.455 632.325 832.54 637.816 828.198L634.095 823.492C630.126 826.63 623.771 828.455 614.506 828.455V834.455ZM637.816 828.198C643.479 823.721 646.051 816.882 646.051 808.355H640.051C640.051 815.668 637.893 820.489 634.095 823.492L637.816 828.198ZM646.051 808.355C646.051 799.632 643.367 792.808 637.21 788.978L634.041 794.072C637.784 796.402 640.051 800.798 640.051 808.355H646.051ZM637.21 788.978C631.566 785.466 623.59 783.905 613.681 783.905V789.905C623.131 789.905 629.785 791.424 634.041 794.072L637.21 788.978ZM613.681 783.905H597.841V789.905H613.681V783.905ZM594.841 786.905V831.455H600.841V786.905H594.841ZM698.893 893H695.893V896H698.893V893ZM698.893 771.395V768.395H695.893V771.395H698.893ZM761.098 774.86L760.107 777.692L760.128 777.699L760.149 777.706L761.098 774.86ZM776.773 785.915L774.367 787.707L774.376 787.719L774.385 787.732L776.773 785.915ZM776.773 827.66L774.315 825.94V825.94L776.773 827.66ZM761.098 840.035L762.212 842.82L762.232 842.812L762.252 842.804L761.098 840.035ZM718.033 843.995V840.995H715.033V843.995H718.033ZM718.033 893V896H721.033V893H718.033ZM718.033 828.65H715.033V831.65H718.033V828.65ZM756.478 823.205L758.331 825.564L758.338 825.558L756.478 823.205ZM756.478 791.36L754.855 793.884L754.89 793.906L754.925 793.927L756.478 791.36ZM718.033 786.905V783.905H715.033V786.905H718.033ZM765.223 893L762.603 894.462L763.461 896H765.223V893ZM735.028 838.88L733.184 836.513L731.154 838.095L732.408 840.342L735.028 838.88ZM749.218 827.825L751.816 826.325L750.093 823.34L747.374 825.458L749.218 827.825ZM786.838 893V896H792.033L789.436 891.5L786.838 893ZM701.893 893V771.395H695.893V893H701.893ZM698.893 774.395H738.658V768.395H698.893V774.395ZM738.658 774.395C746.744 774.395 753.881 775.512 760.107 777.692L762.089 772.028C755.115 769.588 747.291 768.395 738.658 768.395V774.395ZM760.149 777.706C766.215 779.728 770.913 783.069 774.367 787.707L779.179 784.123C774.933 778.421 769.18 774.392 762.046 772.014L760.149 777.706ZM774.385 787.732C777.71 792.102 779.548 798.314 779.548 806.705H785.548C785.548 797.496 783.535 789.848 779.16 784.098L774.385 787.732ZM779.548 806.705C779.548 814.721 777.729 821.062 774.315 825.94L779.23 829.38C783.516 823.258 785.548 815.629 785.548 806.705H779.548ZM774.315 825.94C770.813 830.943 766.054 834.72 759.944 837.266L762.252 842.804C769.341 839.85 775.033 835.377 779.23 829.38L774.315 825.94ZM759.984 837.25C753.794 839.725 746.702 840.995 738.658 840.995V846.995C747.333 846.995 755.201 845.625 762.212 842.82L759.984 837.25ZM738.658 840.995H718.033V846.995H738.658V840.995ZM715.033 843.995V893H721.033V843.995H715.033ZM718.033 890H698.893V896H718.033V890ZM718.033 831.65H736.348V825.65H718.033V831.65ZM736.348 831.65C745.5 831.65 752.977 829.771 758.331 825.564L754.624 820.846C750.739 823.899 744.796 825.65 736.348 825.65V831.65ZM758.338 825.558C763.937 821.132 766.573 814.674 766.573 806.705H760.573C760.573 813.256 758.479 817.798 754.617 820.852L758.338 825.558ZM766.573 806.705C766.573 798.68 763.952 792.373 758.03 788.793L754.925 793.927C758.464 796.067 760.573 799.99 760.573 806.705H766.573ZM758.1 788.836C752.786 785.42 745.408 783.905 736.348 783.905V789.905C744.888 789.905 750.93 791.36 754.855 793.884L758.1 788.836ZM736.348 783.905H718.033V789.905H736.348V783.905ZM715.033 786.905V828.65H721.033V786.905H715.033ZM767.843 891.538L737.648 837.418L732.408 840.342L762.603 894.462L767.843 891.538ZM736.871 841.247L751.061 830.192L747.374 825.458L733.184 836.513L736.871 841.247ZM746.619 829.325L784.239 894.5L789.436 891.5L751.816 826.325L746.619 829.325ZM786.838 890H765.223V896H786.838V890ZM820.374 893H817.374V896H820.374V893ZM820.374 771.395V768.395H817.374V771.395H820.374ZM892.149 771.395H895.149V768.395H892.149V771.395ZM892.149 787.565V790.565H895.149V787.565H892.149ZM839.514 787.565V784.565H836.514V787.565H839.514ZM839.514 821.39H836.514V824.39H839.514V821.39ZM884.064 821.39H887.064V818.39H884.064V821.39ZM884.064 837.56V840.56H887.064V837.56H884.064ZM839.514 837.56V834.56H836.514V837.56H839.514ZM839.514 876.665H836.514V879.665H839.514V876.665ZM893.964 876.665H896.964V873.665H893.964V876.665ZM893.964 893V896H896.964V893H893.964ZM823.374 893V771.395H817.374V893H823.374ZM820.374 774.395H892.149V768.395H820.374V774.395ZM889.149 771.395V787.565H895.149V771.395H889.149ZM892.149 784.565H839.514V790.565H892.149V784.565ZM836.514 787.565V821.39H842.514V787.565H836.514ZM839.514 824.39H884.064V818.39H839.514V824.39ZM881.064 821.39V837.56H887.064V821.39H881.064ZM884.064 834.56H839.514V840.56H884.064V834.56ZM836.514 837.56V876.665H842.514V837.56H836.514ZM839.514 879.665H893.964V873.665H839.514V879.665ZM890.964 876.665V893H896.964V876.665H890.964ZM893.964 890H820.374V896H893.964V890Z" fill="black"/>
</g>
<defs>
<filter id="filter0_d_348_38" x="222.543" y="447" width="602.914" height="328" filterUnits="userSpaceOnUse" color-interpolation-filters="sRGB">
<feFlood flood-opacity="0" result="BackgroundImageFix"/>
<feColorMatrix in="SourceAlpha" type="matrix" values="0 0 0 0 0 0 0 0 0 0 0 0 0 0 0 0 0 0 127 0" result="hardAlpha"/>
<feOffset dy="3"/>
<feGaussianBlur stdDeviation="2"/>
<feComposite in2="hardAlpha" operator="out"/>
<feColorMatrix type="matrix" values="0 0 0 0 0 0 0 0 0 0 0 0 0 0 0 0 0 0 0.18 0"/>
<feBlend mode="normal" in2="BackgroundImageFix" result="effect1_dropShadow_348_38"/>
<feBlend mode="normal" in="SourceGraphic" in2="effect1_dropShadow_348_38" result="shape"/>
</filter>
<filter id="filter1_d_348_38" x="148.543" y="448" width="750.914" height="477" filterUnits="userSpaceOnUse" color-interpolation-filters="sRGB">
<feFlood flood-opacity="0" result="BackgroundImageFix"/>
<feColorMatrix in="SourceAlpha" type="matrix" values="0 0 0 0 0 0 0 0 0 0 0 0 0 0 0 0 0 0 127 0" result="hardAlpha"/>
<feOffset dy="79"/>
<feGaussianBlur stdDeviation="39"/>
<feComposite in2="hardAlpha" operator="out"/>
<feColorMatrix type="matrix" values="0 0 0 0 0 0 0 0 0 0 0 0 0 0 0 0 0 0 0.25 0"/>
<feBlend mode="normal" in2="BackgroundImageFix" result="effect1_dropShadow_348_38"/>
<feBlend mode="normal" in="SourceGraphic" in2="effect1_dropShadow_348_38" result="shape"/>
</filter>
<linearGradient id="paint0_linear_348_38" x1="511.768" y1="64" x2="511.768" y2="960" gradientUnits="userSpaceOnUse">
<stop stop-color="#0091FF"/>
<stop offset="1" stop-color="#005AB6"/>
</linearGradient>
<linearGradient id="paint1_linear_348_38" x1="511.768" y1="64" x2="511.768" y2="960" gradientUnits="userSpaceOnUse">
<stop stop-color="#0085FF"/>
<stop offset="1" stop-color="#0085FF" stop-opacity="0"/>
</linearGradient>
<linearGradient id="paint2_linear_348_38" x1="511.768" y1="64" x2="511.768" y2="960" gradientUnits="userSpaceOnUse">
<stop stop-color="#00C2FF"/>
<stop offset="1" stop-color="#00D1FF" stop-opacity="0"/>
</linearGradient>
<linearGradient id="paint3_linear_348_38" x1="966" y1="1005.53" x2="112.792" y2="34.1542" gradientUnits="userSpaceOnUse">
<stop stop-color="#0669BC"/>
<stop offset="1" stop-color="#0D549C"/>
</linearGradient>
<linearGradient id="paint4_linear_348_38" x1="349.316" y1="766" x2="60.7966" y2="741.843" gradientUnits="userSpaceOnUse">
<stop stop-color="#F9FCFF"/>
<stop offset="1" stop-color="white" stop-opacity="0"/>
</linearGradient>
<linearGradient id="paint5_linear_348_38" x1="524" y1="448" x2="524" y2="768" gradientUnits="userSpaceOnUse">
<stop stop-color="#D3DFE6"/>
<stop offset="1" stop-color="#7B9CC2"/>
</linearGradient>
<linearGradient id="paint6_linear_348_38" x1="183.5" y1="165.203" x2="161.018" y2="189.926" gradientUnits="userSpaceOnUse">
<stop stop-color="#F9FCFF"/>
<stop offset="1" stop-color="white" stop-opacity="0"/>
</linearGradient>
<linearGradient id="paint7_linear_348_38" x1="222.158" y1="204.906" x2="164.999" y2="201.447" gradientUnits="userSpaceOnUse">
<stop stop-color="#F9FCFF"/>
<stop offset="1" stop-color="white" stop-opacity="0"/>
</linearGradient>
<linearGradient id="paint8_linear_348_38" x1="155.158" y1="204.906" x2="97.9991" y2="201.447" gradientUnits="userSpaceOnUse">
<stop stop-color="#F9FCFF"/>
<stop offset="1" stop-color="white" stop-opacity="0"/>
</linearGradient>
<linearGradient id="paint9_linear_348_38" x1="180.356" y1="118.226" x2="179.886" y2="204.498" gradientUnits="userSpaceOnUse">
<stop stop-color="#D3DFE6"/>
<stop offset="1" stop-color="#7B9CC2"/>
</linearGradient>
<linearGradient id="paint10_linear_348_38" x1="180.356" y1="118.226" x2="179.886" y2="204.498" gradientUnits="userSpaceOnUse">
<stop stop-color="#D3DFE6"/>
<stop offset="1" stop-color="#7B9CC2"/>
</linearGradient>
<linearGradient id="paint11_linear_348_38" x1="180.356" y1="118.226" x2="179.886" y2="204.498" gradientUnits="userSpaceOnUse">
<stop stop-color="#D3DFE6"/>
<stop offset="1" stop-color="#7B9CC2"/>
</linearGradient>
<linearGradient id="paint12_linear_348_38" x1="180.356" y1="118.226" x2="179.886" y2="204.498" gradientUnits="userSpaceOnUse">
<stop stop-color="#D3DFE6"/>
<stop offset="1" stop-color="#7B9CC2"/>
</linearGradient>
<clipPath id="clip0_348_38">
<rect width="1024" height="1024" fill="white"/>
</clipPath>
</defs>
</svg>
