<svg width="1024" height="1024" viewBox="0 0 1024 1024" fill="none" xmlns="http://www.w3.org/2000/svg">
<g clip-path="url(#clip0_348_3)">
<path d="M58.8772 115.176C60.8859 86.3544 84.8524 64 113.744 64H964.466C996.385 64 1021.6 91.0809 1019.33 122.919L963.184 908.919C961.128 937.7 937.179 960 908.324 960H58.9664C27.0853 960 1.88305 932.98 4.09953 901.176L58.8772 115.176Z" fill="url(#paint0_linear_348_3)"/>
<path d="M58.8772 115.176C60.8859 86.3544 84.8524 64 113.744 64H964.466C996.385 64 1021.6 91.0809 1019.33 122.919L963.184 908.919C961.128 937.7 937.179 960 908.324 960H58.9664C27.0853 960 1.88305 932.98 4.09953 901.176L58.8772 115.176Z" fill="url(#paint1_linear_348_3)" fill-opacity="0.45"/>
<path d="M58.8772 115.176C60.8859 86.3544 84.8524 64 113.744 64H964.466C996.385 64 1021.6 91.0809 1019.33 122.919L963.184 908.919C961.128 937.7 937.179 960 908.324 960H58.9664C27.0853 960 1.88305 932.98 4.09953 901.176L58.8772 115.176Z" fill="url(#paint2_linear_348_3)" fill-opacity="0.3"/>
<path d="M50 256H1011L1020.17 120.58C1022.24 89.9701 997.97 64 967.29 64H112.9C84.4095 64 60.8204 86.1343 59.0092 114.567L50 256Z" fill="url(#paint3_linear_348_3)" fill-opacity="0.7"/>
<path d="M14.9333 448H308V766H-6L14.9333 448Z" fill="url(#paint4_linear_348_3)" fill-opacity="0.7"/>
<g filter="url(#filter0_d_348_3)">
<g filter="url(#filter1_d_348_3)">
<path d="M247.84 475.562C249.109 459.991 262.117 448 277.741 448H791.455C808.985 448 822.78 462.966 821.356 480.438L800.16 740.438C798.891 756.009 785.883 768 770.259 768H256.545C239.015 768 225.22 753.034 226.644 735.562L247.84 475.562Z" fill="url(#paint5_linear_348_3)"/>
<path d="M247.84 475.562C249.109 459.991 262.117 448 277.741 448H791.455C808.985 448 822.78 462.966 821.356 480.438L800.16 740.438C798.891 756.009 785.883 768 770.259 768H256.545C239.015 768 225.22 753.034 226.644 735.562L247.84 475.562Z" fill="white" fill-opacity="0.35" style="mix-blend-mode:overlay"/>
</g>
</g>
<g opacity="0.9">
<path d="M147 118.027L204.5 204.906H135.5L147 118.027Z" fill="url(#paint6_linear_348_3)" fill-opacity="0.7"/>
<path d="M214 118.027L206 204.906H152L162.5 118.027H214Z" fill="url(#paint7_linear_348_3)" fill-opacity="0.7"/>
<path d="M147 118.027L143 204.906H85L95.5 118.027H147Z" fill="url(#paint8_linear_348_3)" fill-opacity="0.7"/>
</g>
<path fill-rule="evenodd" clip-rule="evenodd" d="M138.169 127.439C138.13 127.853 138.468 128.643 138.49 130.839L138.169 127.439Z" fill="url(#paint9_linear_348_3)"/>
<path fill-rule="evenodd" clip-rule="evenodd" d="M138.169 127.439C138.13 127.853 138.468 128.643 138.49 130.839L138.169 127.439Z" fill="white" fill-opacity="0.9" style="mix-blend-mode:overlay"/>
<path fill-rule="evenodd" clip-rule="evenodd" d="M201.526 127.651C201.496 127.907 201.825 128.855 201.847 131.051L201.526 127.651Z" fill="url(#paint10_linear_348_3)"/>
<path fill-rule="evenodd" clip-rule="evenodd" d="M201.526 127.651C201.496 127.907 201.825 128.855 201.847 131.051L201.526 127.651Z" fill="white" fill-opacity="0.9" style="mix-blend-mode:overlay"/>
<path d="M142.613 204.295C148.054 204.325 152.765 200.086 153.135 194.827C152.947 194.826 152.842 193.733 152.815 191.707C152.696 183.083 153.177 168.762 153.794 159.997C154.005 157.007 154.389 152.886 154.864 148.455C155.869 149.44 156.885 150.439 157.895 151.437C163.849 157.315 169.627 163.144 172.06 165.681C178.011 171.887 191 186.198 196.372 192.858L196.44 192.943C196.634 193.184 196.812 193.408 196.974 193.617C196.883 194.047 196.82 194.485 196.789 194.932C196.419 200.19 200.529 204.477 205.97 204.507C211.411 204.537 216.122 200.298 216.492 195.039C216.304 195.038 216.199 193.945 216.171 191.919C216.053 183.295 216.534 168.973 217.151 160.209C217.643 153.212 219.086 140.03 220.424 131.152C220.755 128.958 221.212 128.014 221.224 127.758C221.468 122.599 217.396 118.428 212.03 118.399C206.663 118.37 202.008 122.493 201.526 127.651C201.496 127.907 201.825 128.855 201.847 131.051C201.935 139.937 201.522 153.124 201.03 160.121C200.82 163.109 200.503 166.741 200.124 170.573C199.084 169.567 198.03 168.541 196.98 167.514C192.038 162.677 187.179 157.796 184.234 154.726C179.632 149.926 163.779 132.69 157.71 125.371C157.533 124.473 157.221 123.626 156.793 122.849C155.264 120.074 152.257 118.207 148.673 118.187C143.306 118.158 138.651 122.281 138.169 127.439C138.13 127.853 138.468 128.643 138.49 130.839C138.579 139.725 138.166 152.912 137.673 159.909C137.056 168.674 135.523 182.99 134.191 191.606C133.878 193.63 133.62 194.721 133.432 194.72C133.062 199.978 137.172 204.266 142.613 204.295Z" fill="url(#paint11_linear_348_3)"/>
<path d="M142.613 204.295C148.054 204.325 152.765 200.086 153.135 194.827C152.947 194.826 152.842 193.733 152.815 191.707C152.696 183.083 153.177 168.762 153.794 159.997C154.005 157.007 154.389 152.886 154.864 148.455C155.869 149.44 156.885 150.439 157.895 151.437C163.849 157.315 169.627 163.144 172.06 165.681C178.011 171.887 191 186.198 196.372 192.858L196.44 192.943C196.634 193.184 196.812 193.408 196.974 193.617C196.883 194.047 196.82 194.485 196.789 194.932C196.419 200.19 200.529 204.477 205.97 204.507C211.411 204.537 216.122 200.298 216.492 195.039C216.304 195.038 216.199 193.945 216.171 191.919C216.053 183.295 216.534 168.973 217.151 160.209C217.643 153.212 219.086 140.03 220.424 131.152C220.755 128.958 221.212 128.014 221.224 127.758C221.468 122.599 217.396 118.428 212.03 118.399C206.663 118.37 202.008 122.493 201.526 127.651C201.496 127.907 201.825 128.855 201.847 131.051C201.935 139.937 201.522 153.124 201.03 160.121C200.82 163.109 200.503 166.741 200.124 170.573C199.084 169.567 198.03 168.541 196.98 167.514C192.038 162.677 187.179 157.796 184.234 154.726C179.632 149.926 163.779 132.69 157.71 125.371C157.533 124.473 157.221 123.626 156.793 122.849C155.264 120.074 152.257 118.207 148.673 118.187C143.306 118.158 138.651 122.281 138.169 127.439C138.13 127.853 138.468 128.643 138.49 130.839C138.579 139.725 138.166 152.912 137.673 159.909C137.056 168.674 135.523 182.99 134.191 191.606C133.878 193.63 133.62 194.721 133.432 194.72C133.062 199.978 137.172 204.266 142.613 204.295Z" fill="white" fill-opacity="0.9" style="mix-blend-mode:overlay"/>
<path d="M138.166 127.439L138.169 127.439M138.169 127.439C138.13 127.853 138.468 128.643 138.49 130.839C138.579 139.725 138.166 152.912 137.673 159.909C137.056 168.674 135.523 182.99 134.191 191.606C133.878 193.63 133.62 194.721 133.432 194.72C133.062 199.978 137.172 204.266 142.613 204.295C148.054 204.325 152.765 200.086 153.135 194.827C152.947 194.826 152.842 193.733 152.815 191.707C152.696 183.083 153.177 168.762 153.794 159.997C154.005 157.007 154.389 152.886 154.864 148.455C155.869 149.44 156.885 150.439 157.895 151.437C163.849 157.315 169.627 163.144 172.06 165.681C178.011 171.887 191 186.198 196.372 192.858M138.169 127.439C138.651 122.281 143.306 118.158 148.673 118.187C152.257 118.207 155.264 120.074 156.793 122.849C157.221 123.626 157.533 124.473 157.71 125.371C163.779 132.69 179.632 149.926 184.234 154.726C187.179 157.796 192.038 162.677 196.98 167.514C198.03 168.541 199.084 169.567 200.124 170.573C200.503 166.741 200.82 163.109 201.03 160.121C201.522 153.124 201.935 139.937 201.847 131.051C201.825 128.855 201.496 127.907 201.526 127.651M201.523 127.651L201.526 127.651M221.226 127.758L221.224 127.758M201.526 127.651C202.008 122.493 206.663 118.37 212.03 118.399C217.396 118.428 221.468 122.599 221.224 127.758M221.224 127.758C221.212 128.014 220.755 128.958 220.424 131.152C219.086 140.03 217.643 153.212 217.151 160.209C216.534 168.973 216.053 183.295 216.171 191.919C216.199 193.945 216.304 195.038 216.492 195.039C216.122 200.298 211.411 204.537 205.97 204.507C200.529 204.477 196.419 200.19 196.789 194.932C196.82 194.485 196.883 194.047 196.974 193.617C196.812 193.408 196.634 193.184 196.44 192.943M196.44 192.943C196.418 192.915 196.395 192.887 196.372 192.858M196.44 192.943L196.372 192.858" stroke="url(#paint12_linear_348_3)"/>
<path d="M138.166 127.439L138.169 127.439M138.169 127.439C138.13 127.853 138.468 128.643 138.49 130.839C138.579 139.725 138.166 152.912 137.673 159.909C137.056 168.674 135.523 182.99 134.191 191.606C133.878 193.63 133.62 194.721 133.432 194.72C133.062 199.978 137.172 204.266 142.613 204.295C148.054 204.325 152.765 200.086 153.135 194.827C152.947 194.826 152.842 193.733 152.815 191.707C152.696 183.083 153.177 168.762 153.794 159.997C154.005 157.007 154.389 152.886 154.864 148.455C155.869 149.44 156.885 150.439 157.895 151.437C163.849 157.315 169.627 163.144 172.06 165.681C178.011 171.887 191 186.198 196.372 192.858M138.169 127.439C138.651 122.281 143.306 118.158 148.673 118.187C152.257 118.207 155.264 120.074 156.793 122.849C157.221 123.626 157.533 124.473 157.71 125.371C163.779 132.69 179.632 149.926 184.234 154.726C187.179 157.796 192.038 162.677 196.98 167.514C198.03 168.541 199.084 169.567 200.124 170.573C200.503 166.741 200.82 163.109 201.03 160.121C201.522 153.124 201.935 139.937 201.847 131.051C201.825 128.855 201.496 127.907 201.526 127.651M201.523 127.651L201.526 127.651M221.226 127.758L221.224 127.758M201.526 127.651C202.008 122.493 206.663 118.37 212.03 118.399C217.396 118.428 221.468 122.599 221.224 127.758M221.224 127.758C221.212 128.014 220.755 128.958 220.424 131.152C219.086 140.03 217.643 153.212 217.151 160.209C216.534 168.973 216.053 183.295 216.171 191.919C216.199 193.945 216.304 195.038 216.492 195.039C216.122 200.298 211.411 204.537 205.97 204.507C200.529 204.477 196.419 200.19 196.789 194.932C196.82 194.485 196.883 194.047 196.974 193.617C196.812 193.408 196.634 193.184 196.44 192.943M196.44 192.943C196.418 192.915 196.395 192.887 196.372 192.858M196.44 192.943L196.372 192.858" stroke="white" stroke-opacity="0.9" style="mix-blend-mode:overlay"/>
</g>
<defs>
<filter id="filter0_d_348_3" x="222.543" y="447" width="602.914" height="328" filterUnits="userSpaceOnUse" color-interpolation-filters="sRGB">
<feFlood flood-opacity="0" result="BackgroundImageFix"/>
<feColorMatrix in="SourceAlpha" type="matrix" values="0 0 0 0 0 0 0 0 0 0 0 0 0 0 0 0 0 0 127 0" result="hardAlpha"/>
<feOffset dy="3"/>
<feGaussianBlur stdDeviation="2"/>
<feComposite in2="hardAlpha" operator="out"/>
<feColorMatrix type="matrix" values="0 0 0 0 0 0 0 0 0 0 0 0 0 0 0 0 0 0 0.18 0"/>
<feBlend mode="normal" in2="BackgroundImageFix" result="effect1_dropShadow_348_3"/>
<feBlend mode="normal" in="SourceGraphic" in2="effect1_dropShadow_348_3" result="shape"/>
</filter>
<filter id="filter1_d_348_3" x="148.543" y="448" width="750.914" height="477" filterUnits="userSpaceOnUse" color-interpolation-filters="sRGB">
<feFlood flood-opacity="0" result="BackgroundImageFix"/>
<feColorMatrix in="SourceAlpha" type="matrix" values="0 0 0 0 0 0 0 0 0 0 0 0 0 0 0 0 0 0 127 0" result="hardAlpha"/>
<feOffset dy="79"/>
<feGaussianBlur stdDeviation="39"/>
<feComposite in2="hardAlpha" operator="out"/>
<feColorMatrix type="matrix" values="0 0 0 0 0 0 0 0 0 0 0 0 0 0 0 0 0 0 0.25 0"/>
<feBlend mode="normal" in2="BackgroundImageFix" result="effect1_dropShadow_348_3"/>
<feBlend mode="normal" in="SourceGraphic" in2="effect1_dropShadow_348_3" result="shape"/>
</filter>
<linearGradient id="paint0_linear_348_3" x1="511.768" y1="64" x2="511.768" y2="960" gradientUnits="userSpaceOnUse">
<stop stop-color="#0091FF"/>
<stop offset="1" stop-color="#005AB6"/>
</linearGradient>
<linearGradient id="paint1_linear_348_3" x1="511.768" y1="64" x2="511.768" y2="960" gradientUnits="userSpaceOnUse">
<stop stop-color="#0085FF"/>
<stop offset="1" stop-color="#0085FF" stop-opacity="0"/>
</linearGradient>
<linearGradient id="paint2_linear_348_3" x1="511.768" y1="64" x2="511.768" y2="960" gradientUnits="userSpaceOnUse">
<stop stop-color="#00C2FF"/>
<stop offset="1" stop-color="#00D1FF" stop-opacity="0"/>
</linearGradient>
<linearGradient id="paint3_linear_348_3" x1="966" y1="1005.53" x2="112.792" y2="34.1542" gradientUnits="userSpaceOnUse">
<stop stop-color="#0669BC"/>
<stop offset="1" stop-color="#0D549C"/>
</linearGradient>
<linearGradient id="paint4_linear_348_3" x1="349.316" y1="766" x2="60.7966" y2="741.843" gradientUnits="userSpaceOnUse">
<stop stop-color="#F9FCFF"/>
<stop offset="1" stop-color="white" stop-opacity="0"/>
</linearGradient>
<linearGradient id="paint5_linear_348_3" x1="524" y1="448" x2="524" y2="768" gradientUnits="userSpaceOnUse">
<stop stop-color="#D3DFE6"/>
<stop offset="1" stop-color="#7B9CC2"/>
</linearGradient>
<linearGradient id="paint6_linear_348_3" x1="183.5" y1="165.203" x2="161.018" y2="189.926" gradientUnits="userSpaceOnUse">
<stop stop-color="#F9FCFF"/>
<stop offset="1" stop-color="white" stop-opacity="0"/>
</linearGradient>
<linearGradient id="paint7_linear_348_3" x1="222.158" y1="204.906" x2="164.999" y2="201.447" gradientUnits="userSpaceOnUse">
<stop stop-color="#F9FCFF"/>
<stop offset="1" stop-color="white" stop-opacity="0"/>
</linearGradient>
<linearGradient id="paint8_linear_348_3" x1="155.158" y1="204.906" x2="97.9991" y2="201.447" gradientUnits="userSpaceOnUse">
<stop stop-color="#F9FCFF"/>
<stop offset="1" stop-color="white" stop-opacity="0"/>
</linearGradient>
<linearGradient id="paint9_linear_348_3" x1="180.356" y1="118.226" x2="179.885" y2="204.498" gradientUnits="userSpaceOnUse">
<stop stop-color="#D3DFE6"/>
<stop offset="1" stop-color="#7B9CC2"/>
</linearGradient>
<linearGradient id="paint10_linear_348_3" x1="180.356" y1="118.226" x2="179.885" y2="204.498" gradientUnits="userSpaceOnUse">
<stop stop-color="#D3DFE6"/>
<stop offset="1" stop-color="#7B9CC2"/>
</linearGradient>
<linearGradient id="paint11_linear_348_3" x1="180.356" y1="118.226" x2="179.885" y2="204.498" gradientUnits="userSpaceOnUse">
<stop stop-color="#D3DFE6"/>
<stop offset="1" stop-color="#7B9CC2"/>
</linearGradient>
<linearGradient id="paint12_linear_348_3" x1="180.356" y1="118.226" x2="179.885" y2="204.498" gradientUnits="userSpaceOnUse">
<stop stop-color="#D3DFE6"/>
<stop offset="1" stop-color="#7B9CC2"/>
</linearGradient>
<clipPath id="clip0_348_3">
<rect width="1024" height="1024" fill="white"/>
</clipPath>
</defs>
</svg>
