<svg width="1024" height="1024" viewBox="0 0 1024 1024" fill="none" xmlns="http://www.w3.org/2000/svg">
<g clip-path="url(#clip0_354_118)">
<path fill-rule="evenodd" clip-rule="evenodd" d="M138.169 127.439C138.155 127.586 138.189 127.782 138.24 128.072C138.331 128.595 138.476 129.426 138.49 130.839" fill="white"/>
<path fill-rule="evenodd" clip-rule="evenodd" d="M201.526 127.651C201.517 127.726 201.539 127.859 201.575 128.066C201.577 128.08 201.58 128.094 201.582 128.108L201.582 128.109C201.671 128.619 201.832 129.539 201.847 131.051" fill="white"/>
<path fill-rule="evenodd" clip-rule="evenodd" d="M134.076 194.662C134.125 194.544 134.172 194.397 134.218 194.227L152.378 193.936C152.382 193.991 152.387 194.045 152.392 194.096C152.42 194.366 152.454 194.594 152.5 194.762C152.521 194.838 152.55 194.927 152.597 195.008C152.148 199.948 147.705 203.849 142.647 203.821C137.589 203.794 133.698 199.847 133.944 194.906C134.002 194.826 134.044 194.737 134.076 194.662Z" fill="white"/>
<path d="M137.673 159.909C138.166 152.912 138.579 139.725 138.49 130.839C138.476 129.426 138.331 128.595 138.24 128.072C138.189 127.782 138.155 127.586 138.169 127.439C138.651 122.281 143.307 118.158 148.673 118.187C152.257 118.207 155.264 120.074 156.793 122.849C157.221 123.626 157.533 124.473 157.71 125.371C163.779 132.69 179.632 149.926 184.235 154.726C187.179 157.796 192.038 162.677 196.98 167.514C198.03 168.541 199.084 169.567 200.124 170.573C200.503 166.741 200.82 163.109 201.03 160.121C201.522 153.124 201.935 139.937 201.847 131.051C201.832 129.539 201.671 128.619 201.582 128.109L201.582 128.108L201.575 128.066C201.539 127.859 201.517 127.726 201.526 127.651C202.008 122.493 206.663 118.37 212.03 118.399C217.396 118.428 221.468 122.599 221.224 127.758C221.22 127.836 221.176 127.977 221.106 128.197C220.946 128.702 220.655 129.624 220.424 131.152C219.086 140.03 217.643 153.212 217.151 160.209C216.534 168.973 216.053 183.295 216.171 191.919C216.199 193.945 216.304 195.038 216.492 195.039C216.122 200.298 211.411 204.537 205.97 204.507C200.529 204.477 196.419 200.19 196.789 194.932C196.82 194.485 196.883 194.047 196.974 193.617C196.812 193.408 196.634 193.184 196.441 192.943L196.372 192.858C191 186.198 178.011 171.887 172.06 165.681C169.627 163.144 163.849 157.315 157.895 151.437C156.885 150.439 155.869 149.44 154.864 148.455C154.389 152.886 154.005 157.007 153.794 159.997C153.177 168.762 152.696 183.083 152.815 191.707C152.828 192.658 152.858 193.404 152.905 193.927L196.01 193.236C196.156 193.417 196.292 193.588 196.42 193.751C196.345 194.137 196.293 194.53 196.265 194.929C195.879 200.42 200.175 204.95 205.937 204.981C211.699 205.012 216.629 200.533 217.016 195.042L217.049 194.568L216.847 194.567C216.829 194.468 216.811 194.336 216.794 194.168C216.743 193.661 216.71 192.896 216.696 191.886C216.577 183.276 217.058 168.966 217.674 160.212C218.166 153.227 219.607 140.057 220.944 131.189C221.106 130.114 221.299 129.349 221.451 128.823C221.51 128.617 221.564 128.448 221.609 128.306L221.609 128.305L221.645 128.192L221.648 128.182C221.69 128.049 221.742 127.882 221.748 127.751C222.003 122.363 217.745 117.956 212.063 117.925C206.382 117.894 201.508 122.249 201.003 127.635C200.989 127.77 201.018 127.939 201.04 128.071L201.042 128.079C201.049 128.121 201.057 128.165 201.065 128.212L201.065 128.214C201.089 128.353 201.118 128.515 201.147 128.713C201.226 129.24 201.312 130.006 201.323 131.082C201.411 139.957 200.998 153.133 200.507 160.118C200.317 162.813 200.041 166.035 199.71 169.457C198.934 168.704 198.153 167.943 197.375 167.181C192.435 162.347 187.579 157.469 184.639 154.404C180.057 149.625 164.314 132.509 158.205 125.156C158.016 124.255 157.697 123.403 157.265 122.619C155.662 119.71 152.498 117.734 148.706 117.713C143.024 117.682 138.149 122.039 137.646 127.426C137.631 127.589 137.654 127.764 137.68 127.93L137.686 127.967C137.697 128.031 137.709 128.1 137.722 128.172L137.729 128.217C137.748 128.322 137.767 128.436 137.787 128.564C137.867 129.07 137.955 129.796 137.966 130.87C138.054 139.746 137.641 152.921 137.15 159.906C136.534 168.661 135.002 182.965 133.672 191.567C133.516 192.576 133.375 193.34 133.253 193.847C133.212 194.014 133.175 194.145 133.143 194.244L133.682 194.235C133.829 193.732 134 192.843 134.191 191.606C135.523 182.99 137.057 168.674 137.673 159.909Z" fill="white"/>
<path fill-rule="evenodd" clip-rule="evenodd" d="M113.744 64C84.8524 64 60.8859 86.3544 58.8772 115.176L49.063 256H1009.82L1019.33 122.919C1021.6 91.0809 996.385 64 964.466 64H113.744ZM981.227 656.309L1006.39 304H45.7178L35.6822 448L13.5202 766L4.09953 901.176C1.88305 932.98 27.0853 960 58.9664 960H411.593C404.206 946.665 400 931.324 400 915V768H256.545C252.728 768 249.088 767.29 245.744 766C233.729 761.364 225.53 749.23 226.644 735.562L247.84 475.562C249.109 459.991 262.117 448 277.741 448H308H791.455C808.984 448 822.78 462.966 821.356 480.438L807.02 656.283H979C979.745 656.283 980.487 656.292 981.227 656.309ZM803.107 704.283H977.801H979C1003.85 704.283 1024 724.43 1024 749.283V915C1024 939.853 1003.85 960 979 960H908.324H493C468.147 960 448 939.853 448 915V768V749.283C448 724.43 468.147 704.283 493 704.283H803.107ZM134.218 194.227C134.172 194.397 134.125 194.544 134.076 194.662C134.044 194.737 134.002 194.826 133.944 194.906C133.698 199.847 137.589 203.794 142.647 203.821C147.705 203.849 152.148 199.948 152.597 195.008C152.55 194.927 152.521 194.838 152.5 194.762C152.454 194.594 152.42 194.366 152.392 194.096C152.387 194.045 152.382 193.991 152.378 193.936L134.218 194.227ZM152.905 193.927C152.959 194.519 153.035 194.827 153.135 194.827C152.765 200.086 148.054 204.325 142.613 204.295C137.173 204.266 133.062 199.978 133.432 194.72C133.505 194.72 133.589 194.556 133.682 194.235L133.143 194.244C133.175 194.145 133.212 194.014 133.253 193.847C133.375 193.34 133.516 192.576 133.672 191.567C135.002 182.965 136.534 168.661 137.15 159.906C137.641 152.921 138.054 139.746 137.966 130.87C137.955 129.796 137.867 129.07 137.787 128.564C137.767 128.436 137.748 128.322 137.729 128.217L137.722 128.172C137.709 128.1 137.697 128.031 137.686 127.967L137.68 127.93C137.654 127.764 137.631 127.589 137.646 127.426C138.149 122.039 143.024 117.682 148.706 117.713C152.498 117.734 155.662 119.71 157.265 122.619C157.697 123.403 158.016 124.255 158.205 125.156C164.314 132.509 180.057 149.625 184.639 154.404C187.579 157.469 192.435 162.347 197.375 167.181C198.153 167.943 198.934 168.704 199.71 169.457C200.041 166.035 200.317 162.813 200.507 160.118C200.998 153.133 201.411 139.957 201.323 131.082C201.312 130.006 201.226 129.24 201.147 128.713C201.118 128.515 201.089 128.353 201.065 128.214L201.065 128.212C201.057 128.165 201.049 128.121 201.042 128.079L201.04 128.071C201.018 127.939 200.989 127.77 201.003 127.635C201.508 122.249 206.382 117.894 212.063 117.925C217.745 117.956 222.003 122.363 221.748 127.751C221.742 127.882 221.69 128.049 221.648 128.182L221.645 128.192L221.609 128.305L221.609 128.306C221.564 128.448 221.51 128.617 221.451 128.823C221.299 129.349 221.106 130.114 220.944 131.189C219.607 140.057 218.166 153.227 217.674 160.212C217.058 168.966 216.577 183.276 216.696 191.886C216.71 192.896 216.743 193.661 216.794 194.168C216.811 194.336 216.829 194.468 216.847 194.567L217.049 194.568L217.016 195.042C216.629 200.533 211.699 205.012 205.937 204.981C200.175 204.95 195.879 200.42 196.265 194.929C196.293 194.53 196.345 194.137 196.42 193.751C196.292 193.588 196.156 193.417 196.01 193.236L152.905 193.927ZM614.505 828.455H600.841V789.905H613.681C623.131 789.905 629.785 791.424 634.041 794.072C637.784 796.402 640.051 800.798 640.051 808.355C640.051 815.668 637.893 820.489 634.095 823.492C630.126 826.63 623.771 828.455 614.505 828.455ZM640.555 772.186C633.245 769.636 624.875 768.395 615.495 768.395H575.701V896H600.841V849.965H616.156C625.371 849.965 633.629 848.543 640.872 845.622L640.884 845.618L640.895 845.613C648.3 842.557 654.219 837.982 658.536 831.865L658.544 831.854L658.552 831.843C662.941 825.502 665.026 817.603 665.026 808.355C665.026 798.718 662.908 790.742 658.318 784.771C653.962 778.855 647.995 774.67 640.555 772.186ZM738.658 768.395C747.282 768.395 755.099 769.585 762.068 772.021C769.186 774.398 774.929 778.421 779.17 784.111C783.538 789.86 785.548 797.503 785.548 806.705C785.548 815.629 783.516 823.258 779.23 829.38C775.033 835.377 769.341 839.85 762.252 842.804L762.232 842.812L762.212 842.82C762.085 842.871 761.957 842.922 761.829 842.972C761.719 843.015 761.609 843.057 761.498 843.1L792.033 896H763.461L736.12 846.995H721.033V896H695.893V768.395H738.658ZM750.133 823.409L750.093 823.34L749.868 823.515C746.356 824.896 741.891 825.65 736.348 825.65H721.033V789.905H736.348C744.888 789.905 750.93 791.36 754.855 793.884L754.89 793.906L754.925 793.927C758.464 796.067 760.573 799.99 760.573 806.705C760.573 813.253 758.48 817.795 754.622 820.848C753.351 821.846 751.86 822.705 750.133 823.409ZM842.514 790.565V818.39H887.064V840.56H842.514V873.665H896.964V896H817.374V768.395H895.149V790.565H842.514Z" fill="white"/>
</g>
<defs>
<clipPath id="clip0_354_118">
<rect width="1024" height="1024" fill="white"/>
</clipPath>
</defs>
</svg>
